<svg xmlns="http://www.w3.org/2000/svg" viewBox="0 0 188.92 37.81"><path d="M28.57 25.46h-22a7.34 7.34 0 0 0 2.58 4.61 8 8 0 0 0 5.27 1.71 9.11 9.11 0 0 0 6.59-2.71l5.76 2.7a13.74 13.74 0 0 1-5.16 4.52 16.24 16.24 0 0 1-7.14 1.46 14.13 14.13 0 0 1-10.44-4 13.77 13.77 0 0 1-4-10.13 14.24 14.24 0 0 1 4-10.36 13.52 13.52 0 0 1 10.08-4.11 14 14 0 0 1 10.45 4.11q4 4.13 4 10.88zm-6.84-5.4a6.82 6.82 0 0 0-2.67-3.7 7.76 7.76 0 0 0-4.63-1.43 8.17 8.17 0 0 0-5 1.6 8.93 8.93 0 0 0-2.47 3.53zm75.57 5.4h-22a7.39 7.39 0 0 0 2.58 4.61 8 8 0 0 0 5.27 1.71 9.11 9.11 0 0 0 6.59-2.71l5.76 2.7a13.74 13.74 0 0 1-5.16 4.52 16.21 16.21 0 0 1-7.14 1.46 14.13 14.13 0 0 1-10.44-4 13.81 13.81 0 0 1-4-10.13 14.24 14.24 0 0 1 4-10.36 13.52 13.52 0 0 1 10.08-4.11 14 14 0 0 1 10.47 4.11q4 4.13 4 10.88zm-6.83-5.4a6.89 6.89 0 0 0-2.68-3.7 7.73 7.73 0 0 0-4.62-1.43 8.18 8.18 0 0 0-5 1.6 9 9 0 0 0-2.53 3.53zm12.37-9.54h6.83v2.8a16.44 16.44 0 0 1 4.21-2.73 10.22 10.22 0 0 1 3.87-.76 9.35 9.35 0 0 1 6.87 2.82q2.34 2.43 2.34 7.12v18h-6.76V25.83a30.28 30.28 0 0 0-.44-6.48 4.45 4.45 0 0 0-1.52-2.44 4.28 4.28 0 0 0-2.69-.84 5.06 5.06 0 0 0-3.56 1.39 7.43 7.43 0 0 0-2.03 3.84 31 31 0 0 0-.3 5.53v10.93h-6.83zm31.6-10h6.83v10h4.06v5.9h-4.06v21.4h-6.83V16.45h-3.48v-5.9h3.5zm34.66 9.34h6.87v27.9h-6.84v-3.54a13.35 13.35 0 0 1-4 2.74 11.27 11.27 0 0 1-4.37.84 12.12 12.12 0 0 1-9.13-4.09 14.33 14.33 0 0 1-3.85-10.18 14.59 14.59 0 0 1 3.73-10.34 11.85 11.85 0 0 1 9.05-4 11.42 11.42 0 0 1 4.6.92 12.66 12.66 0 0 1 4 2.78zm-7.2 5.6a6.88 6.88 0 0 0-5.26 2.24 8.06 8.06 0 0 0-2.1 5.74 8.13 8.13 0 0 0 2.14 5.81 6.9 6.9 0 0 0 5.28 2.28 7 7 0 0 0 5.34-2.24 8.2 8.2 0 0 0 2.12-5.87 8 8 0 0 0-2.12-5.76 7.12 7.12 0 0 0-5.4-2.2zM182.1 0h6.87v37.76h-6.83z" fill="#324755"/><path d="M34.88.95h8.3q8 0 11.94 2a15.59 15.59 0 0 1 6.43 6.47 21 21 0 0 1 2.52 10.47 21.08 21.08 0 0 1-1.41 7.82 16.23 16.23 0 0 1-3.9 5.93 13.9 13.9 0 0 1-5.39 3.25q-2.9.9-10.06.9h-8.43z" fill="#0083ff"/><path d="M47.3 11l-2.16-.63s-4.3-1.1-6.07.83c0 0-1.8 1-1.15 5.9a47.52 47.52 0 0 0 1.85 8.1c0 0 1.57 5.56 3.2 6.5a1.22 1.22 0 0 0 1.57.18 5.34 5.34 0 0 0 1.44-2.54 32.58 32.58 0 0 0 .48-4c0 0 0-2.1 1.28-2.84a1.4 1.4 0 0 1 1.68.78 5.27 5.27 0 0 1 .56 2.52l.26 2.46s.47 2.67 1.55 3.47a1.22 1.22 0 0 0 1.61 0 10.22 10.22 0 0 0 2.19-3.5 62.43 62.43 0 0 0 2.05-6.16 27.26 27.26 0 0 0 1-6.77c0 0 .26-4.74-2.62-5 0 0-3.85-.8-6.2.47 0 0-3.06 1-4.2 3 0 0-.07-1.2 1.6-2.5a1 1 0 0 0 .07-.26z" fill="#fff"/></svg>