<svg width="85" height="30" viewBox="0 0 85 30" fill="none" xmlns="http://www.w3.org/2000/svg">
<path d="M4 4V26H9.05309L8.94798 4H4Z" fill="#022D6A"/>
<path d="M28.4862 21.3151C27.5161 21.695 25.8667 22.0115 24.3791 22.0115C19.9809 22.0115 17.3937 19.3209 17.3937 15.0475C17.3937 10.2993 20.4336 7.98849 24.3468 7.98849C26.0931 7.98849 27.4837 8.36835 28.4862 8.77986L29.4888 4.94964C28.6156 4.50648 26.6752 4 24.1204 4C17.5231 4 12.2194 8.0518 12.2194 15.3324C12.2194 21.4101 16.1001 26 23.6353 26C26.2871 26 28.3245 25.5252 29.2301 25.082L28.4862 21.3151Z" fill="#022D6A"/>
<path d="M37 26H42.0495V8H48V4H31V8H37V26Z" fill="#022D6A"/>
<path d="M49.2825 4.19737V7.89252H50.1302V4.19737H49.2825Z" fill="#022D6A"/>
<path d="M50.8509 7.89252H51.6929V6.34648C51.6929 6.26972 51.704 6.18749 51.7262 6.13815C51.7816 5.98464 51.9201 5.82565 52.1528 5.82565C52.4575 5.82565 52.5793 6.06139 52.5793 6.40678V7.89252H53.4214V6.30262C53.4214 5.51315 53.0059 5.15131 52.4519 5.15131C52.0032 5.15131 51.7262 5.40898 51.6154 5.57894H51.5988L51.56 5.21162H50.8287C50.8398 5.44736 50.8509 5.73245 50.8509 6.06687V7.89252Z" fill="#022D6A"/>
<path d="M54.1809 4.63048V5.21162H53.8208V5.82565H54.1809V6.92213C54.1809 7.30042 54.2584 7.55809 54.4135 7.71708C54.5465 7.85414 54.7736 7.94735 55.0451 7.94735C55.2833 7.94735 55.4828 7.91993 55.5936 7.87607L55.588 7.2456C55.5271 7.25656 55.444 7.26752 55.3387 7.26752C55.0839 7.26752 55.0063 7.1195 55.0063 6.79604V5.82565H55.6102V5.21162H55.0063V4.44408L54.1809 4.63048Z" fill="#022D6A"/>
<path d="M58.465 6.81797C58.4761 6.75766 58.4927 6.63156 58.4927 6.48902C58.4927 5.82565 58.1603 5.15131 57.285 5.15131C56.3432 5.15131 55.9166 5.9024 55.9166 6.58222C55.9166 7.42103 56.4429 7.94735 57.3625 7.94735C57.7282 7.94735 58.0661 7.89252 58.3431 7.78287L58.2323 7.21818C58.0052 7.28945 57.7725 7.32783 57.4844 7.32783C57.0911 7.32783 56.7476 7.16336 56.7199 6.81797H58.465ZM56.7143 6.24779C56.7365 6.02301 56.8805 5.70503 57.2351 5.70503C57.6229 5.70503 57.7116 6.04494 57.7116 6.24779H56.7143Z" fill="#022D6A"/>
<path d="M58.9986 7.89252H59.8407V6.53288C59.8407 6.46709 59.8462 6.4013 59.8573 6.34648C59.9127 6.0888 60.1232 5.92433 60.4335 5.92433C60.5277 5.92433 60.5997 5.9353 60.6606 5.94626V5.16227C60.5997 5.15131 60.5609 5.15131 60.4833 5.15131C60.223 5.15131 59.8906 5.31578 59.7521 5.70503H59.7299L59.7022 5.21162H58.9765C58.9875 5.44188 58.9986 5.69955 58.9986 6.09429V7.89252Z" fill="#022D6A"/>
<path d="M61.1032 7.89252H61.9453V6.34648C61.9453 6.26972 61.9564 6.18749 61.9785 6.13815C62.0339 5.98464 62.1724 5.82565 62.4051 5.82565C62.7098 5.82565 62.8317 6.06139 62.8317 6.40678V7.89252H63.6738V6.30262C63.6738 5.51315 63.2583 5.15131 62.7043 5.15131C62.2555 5.15131 61.9785 5.40898 61.8677 5.57894H61.8511L61.8123 5.21162H61.081C61.0921 5.44736 61.1032 5.73245 61.1032 6.06687V7.89252Z" fill="#022D6A"/>
<path d="M66.6484 7.89252C66.6207 7.7445 66.6096 7.49779 66.6096 7.24011V6.3081C66.6096 5.67762 66.3216 5.15131 65.4185 5.15131C64.9255 5.15131 64.5543 5.28289 64.3659 5.38705L64.521 5.92433C64.6983 5.81468 64.9919 5.72148 65.269 5.72148C65.6845 5.72148 65.762 5.92433 65.762 6.06687V6.10525C64.8036 6.09977 64.172 6.4342 64.172 7.13046C64.172 7.55809 64.4989 7.95283 65.0474 7.95283C65.3687 7.95283 65.6457 7.8377 65.823 7.62388H65.8396L65.8894 7.89252H66.6484ZM65.7897 6.91665C65.7897 6.96599 65.7842 7.01533 65.7731 7.05919C65.7177 7.22915 65.546 7.36621 65.3354 7.36621C65.1471 7.36621 65.003 7.26204 65.003 7.04823C65.003 6.72476 65.3465 6.6206 65.7897 6.62608V6.91665Z" fill="#022D6A"/>
<path d="M67.3493 4.63048V5.21162H66.9892V5.82565H67.3493V6.92213C67.3493 7.30042 67.4268 7.55809 67.582 7.71708C67.7149 7.85414 67.9421 7.94735 68.2135 7.94735C68.4518 7.94735 68.6512 7.91993 68.762 7.87607L68.7565 7.2456C68.6955 7.25656 68.6124 7.26752 68.5072 7.26752C68.2523 7.26752 68.1748 7.1195 68.1748 6.79604V5.82565H68.7786V5.21162H68.1748V4.44408L67.3493 4.63048Z" fill="#022D6A"/>
<path d="M70.1093 7.89252V5.21162H69.2672V7.89252H70.1093ZM69.6882 4.04386C69.4168 4.04386 69.2395 4.22478 69.245 4.46601C69.2395 4.69627 69.4168 4.88267 69.6827 4.88267C69.9597 4.88267 70.137 4.69627 70.137 4.46601C70.1314 4.22478 69.9597 4.04386 69.6882 4.04386Z" fill="#022D6A"/>
<path d="M72.0783 5.15131C71.2085 5.15131 70.6323 5.70503 70.6323 6.57126C70.6323 7.43748 71.2417 7.95283 72.034 7.95283C72.7597 7.95283 73.4633 7.50327 73.4633 6.52192C73.4633 5.716 72.9093 5.15131 72.0783 5.15131ZM72.0561 5.74341C72.4384 5.74341 72.5935 6.14911 72.5935 6.54933C72.5935 7.03178 72.383 7.35524 72.0561 7.35524C71.696 7.35524 71.5021 7.00985 71.5021 6.54933C71.5021 6.15459 71.6517 5.74341 72.0561 5.74341Z" fill="#022D6A"/>
<path d="M73.9849 7.89252H74.827V6.34648C74.827 6.26972 74.838 6.18749 74.8602 6.13815C74.9156 5.98464 75.0541 5.82565 75.2868 5.82565C75.5915 5.82565 75.7134 6.06139 75.7134 6.40678V7.89252H76.5555V6.30262C76.5555 5.51315 76.1399 5.15131 75.5859 5.15131C75.1372 5.15131 74.8602 5.40898 74.7494 5.57894H74.7328L74.694 5.21162H73.9627C73.9738 5.44736 73.9849 5.73245 73.9849 6.06687V7.89252Z" fill="#022D6A"/>
<path d="M79.5301 7.89252C79.5024 7.7445 79.4913 7.49779 79.4913 7.24011V6.3081C79.4913 5.67762 79.2033 5.15131 78.3002 5.15131C77.8072 5.15131 77.436 5.28289 77.2476 5.38705L77.4027 5.92433C77.58 5.81468 77.8736 5.72148 78.1506 5.72148C78.5661 5.72148 78.6437 5.92433 78.6437 6.06687V6.10525C77.6853 6.09977 77.0537 6.4342 77.0537 7.13046C77.0537 7.55809 77.3806 7.95283 77.929 7.95283C78.2504 7.95283 78.5274 7.8377 78.7046 7.62388H78.7213L78.7711 7.89252H79.5301ZM78.6714 6.91665C78.6714 6.96599 78.6659 7.01533 78.6548 7.05919C78.5994 7.22915 78.4276 7.36621 78.2171 7.36621C78.0288 7.36621 77.8847 7.26204 77.8847 7.04823C77.8847 6.72476 78.2282 6.6206 78.6714 6.62608V6.91665Z" fill="#022D6A"/>
<path d="M80.1579 7.89252H81V4H80.1579V7.89252Z" fill="#022D6A"/>
<path d="M51.8974 13.1168C51.7312 13.1826 51.4487 13.2374 51.1939 13.2374C50.4404 13.2374 49.9972 12.7714 49.9972 12.0313C49.9972 11.2089 50.518 10.8087 51.1883 10.8087C51.4875 10.8087 51.7257 10.8745 51.8974 10.9457L52.0692 10.2824C51.9196 10.2056 51.5872 10.1179 51.1495 10.1179C50.0194 10.1179 49.1108 10.8196 49.1108 12.0806C49.1108 13.1332 49.7756 13.9282 51.0664 13.9282C51.5207 13.9282 51.8697 13.8459 52.0249 13.7692L51.8974 13.1168Z" fill="#022D6A"/>
<path d="M54.7947 13.8733C54.767 13.7253 54.7559 13.4786 54.7559 13.2209V12.2889C54.7559 11.6584 54.4678 11.1321 53.5648 11.1321C53.0717 11.1321 52.7005 11.2637 52.5122 11.3679L52.6673 11.9052C52.8446 11.7955 53.1382 11.7023 53.4152 11.7023C53.8307 11.7023 53.9083 11.9052 53.9083 12.0477V12.0861C52.9498 12.0806 52.3183 12.415 52.3183 13.1113C52.3183 13.5389 52.6451 13.9337 53.1936 13.9337C53.5149 13.9337 53.7919 13.8185 53.9692 13.6047H53.9858L54.0357 13.8733H54.7947ZM53.936 12.8975C53.936 12.9468 53.9304 12.9962 53.9193 13.04C53.8639 13.21 53.6922 13.347 53.4817 13.347C53.2933 13.347 53.1493 13.2429 53.1493 13.0291C53.1493 12.7056 53.4928 12.6014 53.936 12.6069V12.8975Z" fill="#022D6A"/>
<path d="M55.4225 14.9589H56.2646V13.6266H56.2756C56.3975 13.8021 56.6524 13.9337 56.9792 13.9337C57.5831 13.9337 58.2091 13.4731 58.2091 12.4973C58.2091 11.642 57.6773 11.1321 57.0845 11.1321C56.6911 11.1321 56.3809 11.2802 56.1815 11.5652H56.1704L56.1316 11.1924H55.4003C55.4114 11.4392 55.4225 11.7407 55.4225 12.0916V14.9589ZM56.2646 12.3547C56.2646 12.3054 56.2701 12.2505 56.2812 12.2067C56.3366 11.96 56.5471 11.7845 56.7853 11.7845C57.162 11.7845 57.3559 12.108 57.3559 12.5356C57.3559 12.9907 57.1399 13.2922 56.7742 13.2922C56.5305 13.2922 56.3366 13.1223 56.2812 12.8975C56.2701 12.8481 56.2646 12.7878 56.2646 12.722V12.3547Z" fill="#022D6A"/>
<path d="M59.5756 13.8733V11.1924H58.7335V13.8733H59.5756ZM59.1546 10.0247C58.8831 10.0247 58.7058 10.2056 58.7114 10.4468C58.7058 10.6771 58.8831 10.8635 59.149 10.8635C59.426 10.8635 59.6033 10.6771 59.6033 10.4468C59.5978 10.2056 59.426 10.0247 59.1546 10.0247Z" fill="#022D6A"/>
<path d="M60.3701 10.6113V11.1924H60.01V11.8065H60.3701V12.903C60.3701 13.2812 60.4477 13.5389 60.6028 13.6979C60.7358 13.835 60.9629 13.9282 61.2344 13.9282C61.4726 13.9282 61.672 13.9008 61.7828 13.8569L61.7773 13.2264C61.7164 13.2374 61.6333 13.2484 61.528 13.2484C61.2732 13.2484 61.1956 13.1003 61.1956 12.7769V11.8065H61.7995V11.1924H61.1956V10.4249L60.3701 10.6113Z" fill="#022D6A"/>
<path d="M64.5871 13.8733C64.5594 13.7253 64.5484 13.4786 64.5484 13.2209V12.2889C64.5484 11.6584 64.2603 11.1321 63.3572 11.1321C62.8642 11.1321 62.493 11.2637 62.3046 11.3679L62.4598 11.9052C62.637 11.7955 62.9307 11.7023 63.2077 11.7023C63.6232 11.7023 63.7007 11.9052 63.7007 12.0477V12.0861C62.7423 12.0806 62.1107 12.415 62.1107 13.1113C62.1107 13.5389 62.4376 13.9337 62.9861 13.9337C63.3074 13.9337 63.5844 13.8185 63.7617 13.6047H63.7783L63.8282 13.8733H64.5871ZM63.7284 12.8975C63.7284 12.9468 63.7229 12.9962 63.7118 13.04C63.6564 13.21 63.4847 13.347 63.2741 13.347C63.0858 13.347 62.9417 13.2429 62.9417 13.0291C62.9417 12.7056 63.2852 12.6014 63.7284 12.6069V12.8975Z" fill="#022D6A"/>
<path d="M65.2149 13.8733H66.057V9.98083H65.2149V13.8733Z" fill="#022D6A"/>
<path d="M50.0027 19.8542H50.8504V16.8608H51.8697V16.159H49V16.8608H50.0027V19.8542Z" fill="#022D6A"/>
<path d="M51.9924 19.8542H52.8345V18.4945C52.8345 18.4287 52.84 18.363 52.8511 18.3081C52.9065 18.0505 53.117 17.886 53.4273 17.886C53.5215 17.886 53.5935 17.8969 53.6544 17.9079V17.1239C53.5935 17.113 53.5547 17.113 53.4771 17.113C53.2168 17.113 52.8844 17.2774 52.7458 17.6667H52.7237L52.696 17.1733H51.9702C51.9813 17.4035 51.9924 17.6612 51.9924 18.0559V19.8542Z" fill="#022D6A"/>
<path d="M56.3366 19.8542C56.3089 19.7061 56.2978 19.4594 56.2978 19.2018V18.2698C56.2978 17.6393 56.0097 17.113 55.1067 17.113C54.6136 17.113 54.2424 17.2445 54.0541 17.3487L54.2092 17.886C54.3865 17.7763 54.6801 17.6831 54.9571 17.6831C55.3726 17.6831 55.4502 17.886 55.4502 18.0285V18.0669C54.4917 18.0614 53.8602 18.3958 53.8602 19.0921C53.8602 19.5197 54.187 19.9145 54.7355 19.9145C55.0568 19.9145 55.3338 19.7993 55.5111 19.5855H55.5277L55.5776 19.8542H56.3366ZM55.4779 18.8783C55.4779 18.9276 55.4723 18.977 55.4613 19.0208C55.4059 19.1908 55.2341 19.3279 55.0236 19.3279C54.8352 19.3279 54.6912 19.2237 54.6912 19.0099C54.6912 18.6864 55.0347 18.5823 55.4779 18.5877V18.8783Z" fill="#022D6A"/>
<path d="M58.7483 15.9617V17.4145H58.7372C58.6153 17.2281 58.3549 17.113 58.0225 17.113C57.3743 17.113 56.8037 17.6338 56.8093 18.5384C56.8093 19.3717 57.3245 19.9145 57.9671 19.9145C58.3162 19.9145 58.643 19.761 58.8148 19.4594H58.8258L58.8646 19.8542H59.6125C59.6014 19.6733 59.5904 19.3553 59.5904 19.0537V15.9617H58.7483ZM58.7483 18.659C58.7483 18.7303 58.7427 18.7906 58.7261 18.8509C58.6763 19.0866 58.4824 19.2511 58.2386 19.2511C57.8896 19.2511 57.6624 18.966 57.6624 18.511C57.6624 18.0888 57.8619 17.7489 58.2441 17.7489C58.5045 17.7489 58.6873 17.9353 58.7372 18.1601C58.7427 18.204 58.7483 18.2643 58.7483 18.3081V18.659Z" fill="#022D6A"/>
<path d="M61.1067 19.8542V17.1733H60.2646V19.8542H61.1067ZM60.6856 16.0055C60.4142 16.0055 60.2369 16.1864 60.2424 16.4277C60.2369 16.6579 60.4142 16.8443 60.6801 16.8443C60.9571 16.8443 61.1344 16.6579 61.1344 16.4277C61.1288 16.1864 60.9571 16.0055 60.6856 16.0055Z" fill="#022D6A"/>
<path d="M61.7849 19.8542H62.627V18.3081C62.627 18.2314 62.638 18.1491 62.6602 18.0998C62.7156 17.9463 62.8541 17.7873 63.0868 17.7873C63.3915 17.7873 63.5134 18.023 63.5134 18.3684V19.8542H64.3554V18.2643C64.3554 17.4748 63.9399 17.113 63.3859 17.113C62.9372 17.113 62.6602 17.3706 62.5494 17.5406H62.5328L62.494 17.1733H61.7627C61.7738 17.409 61.7849 17.6941 61.7849 18.0285V19.8542Z" fill="#022D6A"/>
<path d="M66.8869 17.1733L66.8592 17.4912H66.8481C66.7096 17.272 66.4769 17.113 66.1058 17.113C65.441 17.113 64.8759 17.6612 64.8759 18.5219C64.8759 19.295 65.3523 19.8322 66.0227 19.8322C66.3329 19.8322 66.5933 19.7061 66.7539 19.4814H66.765V19.6568C66.765 20.1502 66.4603 20.364 66.0614 20.364C65.7457 20.364 65.4465 20.2599 65.2748 20.1612L65.1086 20.7917C65.3523 20.9287 65.729 21 66.0836 21C66.4825 21 66.8869 20.9232 67.1861 20.6711C67.4908 20.4024 67.596 19.9803 67.596 19.4649V17.9682C67.596 17.568 67.6071 17.3432 67.6182 17.1733H66.8869ZM66.7539 18.659C66.7539 18.7303 66.7484 18.818 66.7262 18.8783C66.6708 19.0757 66.4991 19.2182 66.283 19.2182C65.9285 19.2182 65.729 18.9057 65.729 18.5055C65.729 18.0176 65.9783 17.7434 66.283 17.7434C66.5157 17.7434 66.6764 17.8915 66.7373 18.1108C66.7484 18.1546 66.7539 18.2094 66.7539 18.2643V18.659Z" fill="#022D6A"/>
</svg>
