<svg width="157" height="41" viewBox="0 0 157 41" fill="none" xmlns="http://www.w3.org/2000/svg">
<path d="M46.4925 6.48828C50.4768 6.48828 52.3598 8.68685 52.3598 11.4396C52.3598 13.5898 51.1715 15.642 48.3358 16.2715L52.5817 23.3243H49.9365L45.9121 16.4384H43.2461V23.3239H41.0391V6.48828H46.4925ZM46.4925 8.30026H43.2439V14.6852H46.492C48.9901 14.6852 50.0813 13.3322 50.0813 11.4478C50.0813 9.56345 49.0164 8.30026 46.4925 8.30026V8.30026Z" fill="#49484C"/>
<path d="M61.5242 23.5381C57.7426 23.5381 54.9531 20.8823 54.9531 16.6785C54.9531 12.4746 57.6451 9.86719 61.5242 9.86719C65.4033 9.86719 67.9007 12.5714 67.9007 16.1953C67.9022 16.6393 67.8779 17.0829 67.8279 17.5241H57.2083C57.3816 20.2058 59.2698 21.6795 61.5235 21.6795C63.5123 21.6795 64.7733 20.6649 65.2584 19.2391H67.6354C66.9581 21.6554 64.8205 23.5381 61.5242 23.5381ZM57.2315 15.7363H65.6212C65.6454 13.1478 63.7052 11.7277 61.4255 11.7277C59.2701 11.7274 57.4737 13.1529 57.2311 15.7362L57.2315 15.7363Z" fill="#49484C"/>
<path d="M76.2925 9.86719C78.7662 9.86719 80.4621 11.1235 81.2382 12.4989V10.0829H83.4695V23.3189H81.2383V20.8564C80.438 22.2818 78.7161 23.5381 76.268 23.5381C72.7288 23.5381 69.9883 20.7598 69.9883 16.6561C69.9885 12.523 72.7274 9.86719 76.2925 9.86719ZM76.7272 11.7758C74.3019 11.7758 72.2423 13.5378 72.2423 16.6543C72.2423 19.7708 74.3037 21.6056 76.7272 21.6056C79.1508 21.6056 81.231 19.7934 81.231 16.6768C81.2383 13.6102 79.1543 11.7758 76.7273 11.7758H76.7272Z" fill="#49484C"/>
<path d="M87.1992 5.44531H89.4058V23.32H87.1992V5.44531Z" fill="#49484C"/>
<path d="M100.778 6.26953C104.438 6.26953 107.347 8.10397 108.608 11.3655H105.966C105.045 9.33783 103.25 8.20053 100.778 8.20053C97.2388 8.20053 94.5952 10.7615 94.5952 14.891C94.5952 19.0206 97.2388 21.5574 100.778 21.5574C103.25 21.5574 105.045 20.4236 105.966 18.4183H108.608C107.347 21.6557 104.438 23.466 100.778 23.466C96.0504 23.466 92.3398 19.9405 92.3398 14.891C92.3398 9.84159 96.05 6.26953 100.778 6.26953Z" fill="#F6A41C"/>
<path d="M123.668 23.3237H121.461V21.3668C120.61 22.7473 118.987 23.5153 117.217 23.5153C114.163 23.5153 111.762 21.6309 111.762 17.8395V10.0859H113.944V17.556C113.944 20.2377 115.422 21.6149 117.653 21.6149C119.933 21.6149 121.464 20.2118 121.464 17.3645V10.0873H123.671L123.668 23.3237Z" fill="#F6A41C"/>
<path d="M134.575 9.8704C138.165 9.8704 140.881 12.5262 140.881 16.6575C140.881 20.7889 138.141 23.5396 134.575 23.5396C132.15 23.5396 130.43 22.3316 129.605 20.8838V23.3242H127.398V5.44922H129.605V12.5521C130.454 11.0767 132.225 9.8704 134.575 9.8704ZM134.115 11.779C131.715 11.779 129.611 13.6135 129.611 16.6817C129.611 19.7983 131.721 21.6102 134.115 21.6102C136.564 21.6102 138.619 19.7741 138.619 16.6589C138.619 13.5438 136.564 11.779 134.115 11.779Z" fill="#F6A41C"/>
<path d="M149.536 23.5381C145.754 23.5381 142.965 20.8823 142.965 16.6785C142.965 12.4746 145.657 9.86719 149.536 9.86719C153.415 9.86719 155.912 12.5714 155.912 16.1953C155.913 16.6392 155.889 17.0828 155.84 17.5241H145.221C145.394 20.2058 147.28 21.6795 149.536 21.6795C151.525 21.6795 152.786 20.6649 153.271 19.2391H155.653C154.96 21.6554 152.834 23.5381 149.536 23.5381ZM145.243 15.7363H153.633C153.657 13.1478 151.717 11.7277 149.437 11.7277C147.28 11.7274 145.488 13.1529 145.243 15.7362V15.7363Z" fill="#F6A41C"/>
<path d="M41.7939 30.3647V32.9378H41.2344V27.3672H41.7939V29.9782L44.2192 27.3724H44.9312L42.3133 30.1507L44.9604 32.9377H44.2245L41.7939 30.3647Z" fill="#49484C"/>
<path d="M49.0479 30.4564C49.0479 29.4918 48.5283 28.9982 47.7213 28.9982C46.9144 28.9982 46.3355 29.5073 46.3355 30.5686V32.9414H45.7773V28.591H46.3438V29.3311C46.6244 28.7892 47.1858 28.5117 47.8336 28.5117C48.8241 28.5117 49.6092 29.1174 49.6092 30.3927V32.9415H49.0566L49.0479 30.4564Z" fill="#49484C"/>
<path d="M52.7527 33.0063C51.521 33.0063 50.5859 32.1435 50.5859 30.7629C50.5859 29.3824 51.5439 28.5195 52.7687 28.5195C53.9935 28.5195 54.9514 29.372 54.9514 30.7629C54.9514 32.1539 53.9844 33.0063 52.7527 33.0063ZM52.7527 32.5197C53.5773 32.5197 54.3777 31.9623 54.3777 30.7665C54.3777 29.5707 53.5912 29.0133 52.7527 29.0133C51.9142 29.0133 51.1431 29.5707 51.1431 30.7665C51.1431 31.9623 51.9195 32.5197 52.7527 32.5197Z" fill="#49484C"/>
<path d="M55.4609 28.6016H56.0292L57.117 32.3877L58.34 28.6016H58.8996L60.112 32.3981L61.1915 28.6016H61.7441L60.379 32.9434H59.8194L58.6068 29.2935L57.3941 32.9434H56.8281L55.4609 28.6016Z" fill="#49484C"/>
<path d="M64.2266 27.3711H64.8588L66.3139 30.2634L67.7621 27.3711H68.3858L66.5945 30.7742V32.9415H66.0351V30.7742L64.2266 27.3711Z" fill="#49484C"/>
<path d="M71.116 33.0063C69.8844 33.0063 68.9492 32.1435 68.9492 30.7629C68.9492 29.3824 69.9089 28.5195 71.132 28.5195C72.3551 28.5195 73.3165 29.372 73.3165 30.7629C73.3165 32.1539 72.3477 33.0063 71.116 33.0063ZM71.116 32.5197C71.9406 32.5197 72.7409 31.9623 72.7409 30.7665C72.7409 29.5707 71.9544 29.0133 71.116 29.0133C70.2776 29.0133 69.5084 29.5707 69.5084 30.7665C69.5084 31.9623 70.2827 32.5197 71.116 32.5197Z" fill="#49484C"/>
<path d="M78.1263 32.9434H77.5665V32.1785C77.3012 32.729 76.7246 33.0154 76.0784 33.0154C75.0858 33.0154 74.3008 32.4097 74.3008 31.1345V28.6016H74.8534V31.0797C74.8534 32.0444 75.3731 32.5396 76.18 32.5396C76.9868 32.5396 77.5658 32.0219 77.5658 30.9693V28.6016H78.1254L78.1263 32.9434Z" fill="#49484C"/>
<path d="M79.9618 32.9406H79.4023V28.5988H79.9618V29.372C80.2026 28.8387 80.7067 28.5195 81.4586 28.5195V29.101H81.3061C80.5802 29.101 79.9618 29.427 79.9618 30.5194V32.9406Z" fill="#49484C"/>
<path d="M86.9753 27.3086C88.2223 27.3086 89.1509 27.9298 89.5513 29.0001H88.8947C88.5829 28.2581 87.9282 27.7922 86.9756 27.7922C85.7509 27.7922 84.8154 28.6913 84.8154 30.1512C84.8154 31.6111 85.7509 32.5015 86.9756 32.5015C87.9284 32.5015 88.5832 32.0391 88.8947 31.3143H89.5513C89.1511 32.367 88.2247 32.9882 86.9753 32.9882C85.4163 32.9882 84.2383 31.8253 84.2383 30.1514C84.2383 28.4774 85.4232 27.3086 86.9753 27.3086Z" fill="#49484C"/>
<path d="M92.5751 33.0063C91.3417 33.0063 90.4062 32.1435 90.4062 30.7629C90.4062 29.3824 91.3657 28.5195 92.5889 28.5195C93.812 28.5195 94.7733 29.372 94.7733 30.7629C94.7733 32.1539 93.8101 33.0063 92.5751 33.0063ZM92.5751 32.5197C93.3976 32.5197 94.1982 31.9623 94.1982 30.7665C94.1982 29.5707 93.4135 29.0133 92.5836 29.0133C91.7538 29.0133 90.974 29.5707 90.974 30.7665C90.974 31.9623 91.7418 32.5197 92.5751 32.5197Z" fill="#49484C"/>
<path d="M102.185 30.4543C102.185 29.4896 101.681 28.9961 100.905 28.9961C100.129 28.9961 99.552 29.5137 99.552 30.5803V32.9393H99.0081V30.4543C99.0081 29.4896 98.4884 28.9961 97.7209 28.9961C96.9534 28.9961 96.3678 29.5137 96.3678 30.5803V32.9393H95.8086V28.5888H96.3682V29.3376C96.5057 29.0773 96.7147 28.8612 96.9708 28.7146C97.2269 28.568 97.5195 28.4969 97.8146 28.5095C98.5421 28.5095 99.1677 28.8546 99.4308 29.5759C99.5427 29.2524 99.7568 28.9737 100.041 28.7815C100.325 28.5892 100.664 28.4938 101.007 28.5095C101.976 28.5095 102.74 29.1152 102.74 30.3905V32.9394H102.187V30.4543H102.185Z" fill="#49484C"/>
<path d="M110.362 30.4543C110.362 29.4896 109.86 28.9961 109.082 28.9961C108.304 28.9961 107.731 29.5137 107.731 30.5803V32.9393H107.178V30.4543C107.178 29.4896 106.658 28.9961 105.889 28.9961C105.12 28.9961 104.536 29.5137 104.536 30.5803V32.9393H103.977V28.5888H104.536V29.3376C104.674 29.077 104.883 28.8608 105.139 28.7141C105.396 28.5675 105.689 28.4965 105.984 28.5095C106.712 28.5095 107.337 28.8546 107.599 29.5759C107.711 29.2524 107.925 28.9737 108.209 28.7814C108.493 28.5892 108.832 28.4938 109.175 28.5095C110.143 28.5095 110.907 29.1152 110.907 30.3905V32.9394H110.355V30.4543H110.362Z" fill="#49484C"/>
<path d="M115.938 32.9434H115.379V32.1785C115.114 32.729 114.537 33.0154 113.891 33.0154C112.898 33.0154 112.113 32.4097 112.113 31.1345V28.6016H112.666V31.0797C112.666 32.0444 113.186 32.5396 113.992 32.5396C114.799 32.5396 115.378 32.0219 115.378 30.9693V28.6016H115.938L115.938 32.9434Z" fill="#49484C"/>
<path d="M120.487 30.4564C120.487 29.4918 119.968 28.9982 119.161 28.9982C118.354 28.9982 117.775 29.5073 117.775 30.5686V32.9414H117.215V28.591H117.774V29.3311C118.055 28.7892 118.616 28.5117 119.262 28.5117C120.255 28.5117 121.04 29.1174 121.04 30.3927V32.9415H120.488L120.487 30.4564Z" fill="#49484C"/>
<path d="M122.157 27.3534C122.163 27.2647 122.198 27.1803 122.256 27.1131C122.315 27.046 122.394 26.9997 122.481 26.9814C122.568 26.9631 122.659 26.9737 122.74 27.0117C122.821 27.0497 122.887 27.113 122.928 27.1918C122.969 27.2707 122.983 27.3608 122.968 27.4485C122.953 27.5361 122.91 27.6164 122.845 27.6772C122.779 27.738 122.696 27.7759 122.607 27.7851C122.519 27.7943 122.429 27.7743 122.353 27.7282C122.289 27.6895 122.237 27.6341 122.202 27.5681C122.168 27.502 122.152 27.4277 122.157 27.3534V27.3534ZM122.284 28.5907H122.843V32.9411H122.284V28.5907Z" fill="#49484C"/>
<path d="M124.276 29.061H123.668V28.6003H124.276V27.5078H124.844V28.6003H126.045V29.0698H124.844V31.7706C124.844 32.3055 125.026 32.4713 125.537 32.4713H126.057V32.9493H125.455C124.697 32.9493 124.288 32.6386 124.288 31.7687L124.276 29.061Z" fill="#49484C"/>
<path d="M129.987 28.6016H130.562L127.971 34.9866H127.387L128.234 32.9158L126.441 28.6016H127.058L128.546 32.3135L129.987 28.6016Z" fill="#49484C"/>
<path d="M135.451 32.9416H133.516V27.3711H135.395C136.571 27.3711 137.128 27.9924 137.128 28.7741C137.137 29.0715 137.043 29.3631 136.86 29.5988C136.678 29.8346 136.419 30 136.128 30.0666C136.447 30.1314 136.734 30.3044 136.939 30.5561C137.145 30.8079 137.256 31.1228 137.254 31.4472C137.259 32.2889 136.627 32.9416 135.451 32.9416ZM135.357 27.8406H134.077V29.8338H135.385C136.145 29.8338 136.57 29.4507 136.57 28.8294C136.57 28.2081 136.163 27.8405 135.357 27.8405L135.357 27.8406ZM135.386 30.2962H134.075V32.4707H135.411C136.219 32.4707 136.699 32.0654 136.699 31.3958C136.699 30.7262 136.186 30.2966 135.385 30.2966L135.386 30.2962Z" fill="#49484C"/>
<path d="M140.182 33.0063C138.942 33.0063 138.039 32.1435 138.039 30.7629C138.039 29.3824 138.926 28.5195 140.182 28.5195C141.438 28.5195 142.247 29.427 142.247 30.5351C142.25 30.6814 142.245 30.8277 142.231 30.9734H138.607C138.656 31.9933 139.368 32.5265 140.184 32.5265C140.929 32.5265 141.433 32.1349 141.594 31.5533H142.185C141.984 32.3816 141.277 33.0063 140.182 33.0063ZM138.606 30.5265H141.677C141.701 29.5153 140.967 29.0044 140.158 29.0044C139.349 29.0044 138.678 29.5136 138.606 30.5265Z" fill="#49484C"/>
<path d="M143.429 29.061H142.82V28.6003H143.429V27.5078H143.997V28.6003H145.197V29.0698H143.997V31.7706C143.997 32.3055 144.182 32.4713 144.69 32.4713H145.209V32.9493H144.608C143.849 32.9493 143.44 32.6386 143.44 31.7687L143.429 29.061Z" fill="#49484C"/>
<path d="M146.28 29.061H145.672V28.6003H146.28V27.5078H146.848V28.6003H148.049V29.0698H146.848V31.7706C146.848 32.3055 147.034 32.4713 147.541 32.4713H148.061V32.9493H147.459C146.701 32.9493 146.292 32.6386 146.292 31.7687L146.28 29.061Z" fill="#49484C"/>
<path d="M150.856 33.0063C149.615 33.0063 148.711 32.1435 148.711 30.7629C148.711 29.3824 149.6 28.5195 150.856 28.5195C152.111 28.5195 152.921 29.427 152.921 30.5351C152.924 30.6814 152.918 30.8277 152.905 30.9734H149.281C149.329 31.9933 150.041 32.5265 150.857 32.5265C151.602 32.5265 152.104 32.1349 152.266 31.5533H152.858C152.655 32.3816 151.952 33.0063 150.856 33.0063ZM149.281 30.5265H152.352C152.377 29.5153 151.64 29.0044 150.833 29.0044C150.026 29.0044 149.343 29.5136 149.281 30.5265Z" fill="#49484C"/>
<path d="M154.505 32.9406H153.945V28.5988H154.505V29.372C154.746 28.8387 155.25 28.5195 156.002 28.5195V29.101H155.849C155.121 29.101 154.505 29.427 154.505 30.5194V32.9492V32.9406Z" fill="#49484C"/>
<path d="M17.5389 34.6149V19.9537L4.91016 12.5781" stroke="white" stroke-width="0.2" stroke-miterlimit="10"/>
<path d="M30.2023 12.9844L17.5391 19.9562" stroke="white" stroke-width="0.2" stroke-miterlimit="10"/>
<path d="M17.5831 40.2914L0 29.9303V10.1164L17.4168 0L34.8318 10.116V29.9299L17.5831 40.2913V40.2914ZM17.6039 5.58773L5.05877 12.4128V27.1311L17.5228 34.5309L29.987 27.1311V13.0702L17.6039 5.58773Z" fill="#49484C"/>
<path d="M26.7157 25.1351L22.8353 23.161L26.7157 20.5293L26.7348 14.8914L17.5534 9.42969L8.55742 14.7742L8.22656 25.1349L12.9316 27.9305L13.2607 17.9825L17.4705 15.5148L21.5224 17.6821L17.5381 19.9551L17.4999 26.1366L21.6817 28.342L26.7158 25.1357" fill="#F6A41C"/>
</svg>
